<?xml version="1.0" standalone="no"?>
<!DOCTYPE svg PUBLIC "-//W3C//DTD SVG 20010904//EN"
 "http://www.w3.org/TR/2001/REC-SVG-20010904/DTD/svg10.dtd">
<svg version="1.0" xmlns="http://www.w3.org/2000/svg"
 width="798.000000pt" height="798.000000pt" viewBox="0 0 798.000000 798.000000"
 preserveAspectRatio="xMidYMid meet">
<metadata>
Created by potrace 1.11, written by Peter Selinger 2001-2013
</metadata>
<g transform="translate(0.000000,798.000000) scale(0.100000,-0.100000)"
fill="#000000" stroke="none">
<path d="M5584 7900 c-28 -4 -80 -11 -115 -14 -85 -9 -224 -29 -289 -41 -25
-5 -150 -37 -225 -57 -38 -11 -74 -20 -80 -22 -161 -43 -400 -130 -620 -224
-236 -101 -280 -122 -592 -277 l-302 -151 -62 29 c-46 21 -72 28 -96 24 -51
-9 -118 -46 -169 -94 -25 -24 -69 -54 -97 -67 -58 -26 -143 -96 -152 -126 -5
-17 -12 -19 -44 -14 -49 8 -92 -12 -159 -74 -39 -36 -53 -58 -62 -95 -10 -39
-19 -50 -47 -63 -43 -21 -133 -102 -133 -120 0 -17 -12 -17 -63 -3 -43 11 -48
9 -127 -64 -35 -32 -50 -54 -50 -72 0 -31 -5 -31 -42 0 -38 32 -54 32 -86 -5
-15 -16 -32 -30 -39 -30 -18 0 -92 -68 -107 -99 -32 -62 -30 -88 10 -136 20
-25 35 -47 32 -50 -2 -2 -21 1 -41 7 -36 11 -37 11 -91 -46 -55 -57 -76 -101
-76 -159 0 -16 -4 -26 -9 -23 -15 10 -110 -76 -129 -116 l-17 -39 -52 6 c-52
6 -52 6 -111 -47 -60 -53 -92 -107 -92 -153 0 -14 -5 -25 -10 -25 -18 0 -101
-83 -119 -120 -10 -19 -29 -66 -42 -104 -25 -72 -39 -87 -65 -65 -13 10 -19 8
-40 -12 -13 -14 -26 -34 -28 -44 -3 -11 -18 -53 -35 -94 -38 -90 -33 -142 16
-174 7 -4 13 -13 13 -18 0 -6 -41 -86 -91 -177 -127 -232 -124 -226 -235 -432
-323 -600 -503 -1077 -569 -1506 -44 -282 -47 -324 -42 -569 5 -196 10 -265
30 -376 51 -278 116 -477 230 -704 62 -125 111 -197 190 -282 62 -66 189 -163
214 -163 7 0 13 -7 13 -15 0 -26 164 -180 256 -240 93 -62 237 -132 319 -157
233 -72 217 -68 485 -115 138 -24 591 -29 770 -9 247 29 487 72 645 116 499
139 959 336 1380 589 65 39 119 71 121 71 2 0 55 33 117 73 61 40 130 84 152
97 157 95 685 494 811 614 6 6 24 22 39 35 325 277 772 740 1061 1101 138 172
454 619 454 642 0 3 24 46 54 95 138 229 388 781 451 998 9 33 23 74 30 90 31
68 97 361 116 510 5 39 11 86 14 105 26 196 29 308 12 650 -6 110 -57 414 -93
545 -62 231 -142 448 -205 556 -42 73 -108 139 -139 139 -13 0 -22 9 -26 28
-24 109 -92 215 -169 266 -30 20 -57 41 -60 46 -13 20 -199 137 -302 189 -208
104 -537 199 -838 242 -159 22 -459 33 -551 19z"/>
</g>
</svg>
